<svg xmlns="http://www.w3.org/2000/svg" viewBox="0 0 640 360">
<!-- WebXR: una ventana del navegador con la escena Hola Mundo de A-Frame y un visor de realidad virtual. -->
<polygon points="0,0 53.3,0 60.7,65.3" fill="#1a112c" stroke="#1a112c" stroke-width="0.7" stroke-linejoin="round"/><polygon points="0,0 60.7,65.3 0,51.4" fill="#261e38" stroke="#261e38" stroke-width="0.7" stroke-linejoin="round"/><polygon points="53.3,0 106.7,0 60.7,65.3" fill="#231c37" stroke="#231c37" stroke-width="0.7" stroke-linejoin="round"/><polygon points="106.7,0 117.3,32.9 60.7,65.3" fill="#1a122f" stroke="#1a122f" stroke-width="0.7" stroke-linejoin="round"/><polygon points="106.7,0 160,0 156.4,45.1" fill="#17152e" stroke="#17152e" stroke-width="0.7" stroke-linejoin="round"/><polygon points="106.7,0 156.4,45.1 117.3,32.9" fill="#18132d" stroke="#18132d" stroke-width="0.7" stroke-linejoin="round"/><polygon points="160,0 213.3,0 156.4,45.1" fill="#181730" stroke="#181730" stroke-width="0.7" stroke-linejoin="round"/><polygon points="213.3,0 195.2,69.2 156.4,45.1" fill="#18152e" stroke="#18152e" stroke-width="0.7" stroke-linejoin="round"/><polygon points="213.3,0 266.7,0 280,58.2" fill="#1b1d36" stroke="#1b1d36" stroke-width="0.7" stroke-linejoin="round"/><polygon points="213.3,0 280,58.2 195.2,69.2" fill="#17162e" stroke="#17162e" stroke-width="0.7" stroke-linejoin="round"/><polygon points="266.7,0 320,0 280,58.2" fill="#24293f" stroke="#24293f" stroke-width="0.7" stroke-linejoin="round"/><polygon points="320,0 312.3,60.9 280,58.2" fill="#272a40" stroke="#272a40" stroke-width="0.7" stroke-linejoin="round"/><polygon points="320,0 373.3,0 376.4,48.2" fill="#161e34" stroke="#161e34" stroke-width="0.7" stroke-linejoin="round"/><polygon points="320,0 376.4,48.2 312.3,60.9" fill="#161a32" stroke="#161a32" stroke-width="0.7" stroke-linejoin="round"/><polygon points="373.3,0 426.7,0 376.4,48.2" fill="#162036" stroke="#162036" stroke-width="0.7" stroke-linejoin="round"/><polygon points="426.7,0 436,32.8 376.4,48.2" fill="#262e44" stroke="#262e44" stroke-width="0.7" stroke-linejoin="round"/><polygon points="426.7,0 480,0 489.1,62.1" fill="#142034" stroke="#142034" stroke-width="0.7" stroke-linejoin="round"/><polygon points="426.7,0 489.1,62.1 436,32.8" fill="#172238" stroke="#172238" stroke-width="0.7" stroke-linejoin="round"/><polygon points="480,0 533.3,0 489.1,62.1" fill="#142237" stroke="#142237" stroke-width="0.7" stroke-linejoin="round"/><polygon points="533.3,0 548,42.5 489.1,62.1" fill="#17263a" stroke="#17263a" stroke-width="0.7" stroke-linejoin="round"/><polygon points="533.3,0 586.7,0 602.9,65.1" fill="#1b2d3f" stroke="#1b2d3f" stroke-width="0.7" stroke-linejoin="round"/><polygon points="533.3,0 602.9,65.1 548,42.5" fill="#1c2c3f" stroke="#1c2c3f" stroke-width="0.7" stroke-linejoin="round"/><polygon points="586.7,0 640,0 602.9,65.1" fill="#122638" stroke="#122638" stroke-width="0.7" stroke-linejoin="round"/><polygon points="640,0 640,51.4 602.9,65.1" fill="#112436" stroke="#112436" stroke-width="0.7" stroke-linejoin="round"/><polygon points="0,51.4 60.7,65.3 0,102.9" fill="#19112b" stroke="#19112b" stroke-width="0.7" stroke-linejoin="round"/><polygon points="60.7,65.3 65,115.4 0,102.9" fill="#170f27" stroke="#170f27" stroke-width="0.7" stroke-linejoin="round"/><polygon points="60.7,65.3 117.3,32.9 126.2,109.2" fill="#19112b" stroke="#19112b" stroke-width="0.7" stroke-linejoin="round"/><polygon points="60.7,65.3 126.2,109.2 65,115.4" fill="#231b33" stroke="#231b33" stroke-width="0.7" stroke-linejoin="round"/><polygon points="117.3,32.9 156.4,45.1 126.2,109.2" fill="#1f1731" stroke="#1f1731" stroke-width="0.7" stroke-linejoin="round"/><polygon points="156.4,45.1 165.8,83.7 126.2,109.2" fill="#292038" stroke="#292038" stroke-width="0.7" stroke-linejoin="round"/><polygon points="156.4,45.1 195.2,69.2 199.4,89.7" fill="#17122a" stroke="#17122a" stroke-width="0.7" stroke-linejoin="round"/><polygon points="156.4,45.1 199.4,89.7 165.8,83.7" fill="#201b33" stroke="#201b33" stroke-width="0.7" stroke-linejoin="round"/><polygon points="195.2,69.2 280,58.2 199.4,89.7" fill="#17142c" stroke="#17142c" stroke-width="0.7" stroke-linejoin="round"/><polygon points="280,58.2 275.3,93.8 199.4,89.7" fill="#17132a" stroke="#17132a" stroke-width="0.7" stroke-linejoin="round"/><polygon points="280,58.2 312.3,60.9 310.5,110" fill="#16162b" stroke="#16162b" stroke-width="0.7" stroke-linejoin="round"/><polygon points="280,58.2 310.5,110 275.3,93.8" fill="#16142b" stroke="#16142b" stroke-width="0.7" stroke-linejoin="round"/><polygon points="312.3,60.9 376.4,48.2 310.5,110" fill="#202339" stroke="#202339" stroke-width="0.7" stroke-linejoin="round"/><polygon points="376.4,48.2 379.7,122.7 310.5,110" fill="#15162c" stroke="#15162c" stroke-width="0.7" stroke-linejoin="round"/><polygon points="376.4,48.2 436,32.8 440.3,116.6" fill="#192136" stroke="#192136" stroke-width="0.7" stroke-linejoin="round"/><polygon points="376.4,48.2 440.3,116.6 379.7,122.7" fill="#15192f" stroke="#15192f" stroke-width="0.7" stroke-linejoin="round"/><polygon points="436,32.8 489.1,62.1 440.3,116.6" fill="#20283c" stroke="#20283c" stroke-width="0.7" stroke-linejoin="round"/><polygon points="489.1,62.1 496.4,95.9 440.3,116.6" fill="#141c31" stroke="#141c31" stroke-width="0.7" stroke-linejoin="round"/><polygon points="489.1,62.1 548,42.5 528.4,97.7" fill="#131f33" stroke="#131f33" stroke-width="0.7" stroke-linejoin="round"/><polygon points="489.1,62.1 528.4,97.7 496.4,95.9" fill="#141d32" stroke="#141d32" stroke-width="0.7" stroke-linejoin="round"/><polygon points="548,42.5 602.9,65.1 528.4,97.7" fill="#122133" stroke="#122133" stroke-width="0.7" stroke-linejoin="round"/><polygon points="602.9,65.1 568.2,116.6 528.4,97.7" fill="#131f32" stroke="#131f32" stroke-width="0.7" stroke-linejoin="round"/><polygon points="602.9,65.1 640,51.4 640,102.9" fill="#122336" stroke="#122336" stroke-width="0.7" stroke-linejoin="round"/><polygon points="602.9,65.1 640,102.9 568.2,116.6" fill="#142235" stroke="#142235" stroke-width="0.7" stroke-linejoin="round"/><polygon points="0,102.9 65,115.4 32.3,150.4" fill="#171026" stroke="#171026" stroke-width="0.7" stroke-linejoin="round"/><polygon points="0,102.9 32.3,150.4 0,154.3" fill="#160e24" stroke="#160e24" stroke-width="0.7" stroke-linejoin="round"/><polygon points="65,115.4 126.2,109.2 32.3,150.4" fill="#160f25" stroke="#160f25" stroke-width="0.7" stroke-linejoin="round"/><polygon points="126.2,109.2 87.3,152.2 32.3,150.4" fill="#170f26" stroke="#170f26" stroke-width="0.7" stroke-linejoin="round"/><polygon points="126.2,109.2 165.8,83.7 176.5,173.8" fill="#1c162c" stroke="#1c162c" stroke-width="0.7" stroke-linejoin="round"/><polygon points="126.2,109.2 176.5,173.8 87.3,152.2" fill="#150f25" stroke="#150f25" stroke-width="0.7" stroke-linejoin="round"/><polygon points="165.8,83.7 199.4,89.7 176.5,173.8" fill="#181129" stroke="#181129" stroke-width="0.7" stroke-linejoin="round"/><polygon points="199.4,89.7 220,167.3 176.5,173.8" fill="#1e172d" stroke="#1e172d" stroke-width="0.7" stroke-linejoin="round"/><polygon points="199.4,89.7 275.3,93.8 268.3,149.6" fill="#171229" stroke="#171229" stroke-width="0.7" stroke-linejoin="round"/><polygon points="199.4,89.7 268.3,149.6 220,167.3" fill="#160e24" stroke="#160e24" stroke-width="0.7" stroke-linejoin="round"/><polygon points="275.3,93.8 310.5,110 268.3,149.6" fill="#1e1b31" stroke="#1e1b31" stroke-width="0.7" stroke-linejoin="round"/><polygon points="310.5,110 305.1,173.1 268.3,149.6" fill="#151026" stroke="#151026" stroke-width="0.7" stroke-linejoin="round"/><polygon points="310.5,110 379.7,122.7 382.9,173.3" fill="#1d1b30" stroke="#1d1b30" stroke-width="0.7" stroke-linejoin="round"/><polygon points="310.5,110 382.9,173.3 305.1,173.1" fill="#141126" stroke="#141126" stroke-width="0.7" stroke-linejoin="round"/><polygon points="379.7,122.7 440.3,116.6 382.9,173.3" fill="#141429" stroke="#141429" stroke-width="0.7" stroke-linejoin="round"/><polygon points="440.3,116.6 440.1,144.8 382.9,173.3" fill="#13152a" stroke="#13152a" stroke-width="0.7" stroke-linejoin="round"/><polygon points="440.3,116.6 496.4,95.9 492.8,150.5" fill="#141a2e" stroke="#141a2e" stroke-width="0.7" stroke-linejoin="round"/><polygon points="440.3,116.6 492.8,150.5 440.1,144.8" fill="#191c2f" stroke="#191c2f" stroke-width="0.7" stroke-linejoin="round"/><polygon points="496.4,95.9 528.4,97.7 492.8,150.5" fill="#131b2e" stroke="#131b2e" stroke-width="0.7" stroke-linejoin="round"/><polygon points="528.4,97.7 549.1,166.4 492.8,150.5" fill="#202538" stroke="#202538" stroke-width="0.7" stroke-linejoin="round"/><polygon points="528.4,97.7 568.2,116.6 604.6,153.1" fill="#131d2f" stroke="#131d2f" stroke-width="0.7" stroke-linejoin="round"/><polygon points="528.4,97.7 604.6,153.1 549.1,166.4" fill="#121a2c" stroke="#121a2c" stroke-width="0.7" stroke-linejoin="round"/><polygon points="568.2,116.6 640,102.9 604.6,153.1" fill="#232e3f" stroke="#232e3f" stroke-width="0.7" stroke-linejoin="round"/><polygon points="640,102.9 640,154.3 604.6,153.1" fill="#121e30" stroke="#121e30" stroke-width="0.7" stroke-linejoin="round"/><polygon points="0,154.3 32.3,150.4 0,205.7" fill="#140f23" stroke="#140f23" stroke-width="0.7" stroke-linejoin="round"/><polygon points="32.3,150.4 47.8,220.7 0,205.7" fill="#140e21" stroke="#140e21" stroke-width="0.7" stroke-linejoin="round"/><polygon points="32.3,150.4 87.3,152.2 94.9,217.1" fill="#1b1529" stroke="#1b1529" stroke-width="0.7" stroke-linejoin="round"/><polygon points="32.3,150.4 94.9,217.1 47.8,220.7" fill="#171125" stroke="#171125" stroke-width="0.7" stroke-linejoin="round"/><polygon points="87.3,152.2 176.5,173.8 94.9,217.1" fill="#191227" stroke="#191227" stroke-width="0.7" stroke-linejoin="round"/><polygon points="176.5,173.8 154.9,218.5 94.9,217.1" fill="#130d20" stroke="#130d20" stroke-width="0.7" stroke-linejoin="round"/><polygon points="176.5,173.8 220,167.3 196.7,223.3" fill="#211a2d" stroke="#211a2d" stroke-width="0.7" stroke-linejoin="round"/><polygon points="176.5,173.8 196.7,223.3 154.9,218.5" fill="#171123" stroke="#171123" stroke-width="0.7" stroke-linejoin="round"/><polygon points="220,167.3 268.3,149.6 196.7,223.3" fill="#140d21" stroke="#140d21" stroke-width="0.7" stroke-linejoin="round"/><polygon points="268.3,149.6 252.1,219.7 196.7,223.3" fill="#140e22" stroke="#140e22" stroke-width="0.7" stroke-linejoin="round"/><polygon points="268.3,149.6 305.1,173.1 321.4,223.6" fill="#140d22" stroke="#140d22" stroke-width="0.7" stroke-linejoin="round"/><polygon points="268.3,149.6 321.4,223.6 252.1,219.7" fill="#130d21" stroke="#130d21" stroke-width="0.7" stroke-linejoin="round"/><polygon points="305.1,173.1 382.9,173.3 321.4,223.6" fill="#251e31" stroke="#251e31" stroke-width="0.7" stroke-linejoin="round"/><polygon points="382.9,173.3 372.6,204.3 321.4,223.6" fill="#140e21" stroke="#140e21" stroke-width="0.7" stroke-linejoin="round"/><polygon points="382.9,173.3 440.1,144.8 425.9,198.8" fill="#131225" stroke="#131225" stroke-width="0.7" stroke-linejoin="round"/><polygon points="382.9,173.3 425.9,198.8 372.6,204.3" fill="#140f22" stroke="#140f22" stroke-width="0.7" stroke-linejoin="round"/><polygon points="440.1,144.8 492.8,150.5 425.9,198.8" fill="#131426" stroke="#131426" stroke-width="0.7" stroke-linejoin="round"/><polygon points="492.8,150.5 463.7,209.9 425.9,198.8" fill="#151428" stroke="#151428" stroke-width="0.7" stroke-linejoin="round"/><polygon points="492.8,150.5 549.1,166.4 531.8,206.4" fill="#14192b" stroke="#14192b" stroke-width="0.7" stroke-linejoin="round"/><polygon points="492.8,150.5 531.8,206.4 463.7,209.9" fill="#191b2d" stroke="#191b2d" stroke-width="0.7" stroke-linejoin="round"/><polygon points="549.1,166.4 604.6,153.1 531.8,206.4" fill="#222738" stroke="#222738" stroke-width="0.7" stroke-linejoin="round"/><polygon points="604.6,153.1 586.8,208.4 531.8,206.4" fill="#212536" stroke="#212536" stroke-width="0.7" stroke-linejoin="round"/><polygon points="604.6,153.1 640,154.3 640,205.7" fill="#121b2d" stroke="#121b2d" stroke-width="0.7" stroke-linejoin="round"/><polygon points="604.6,153.1 640,205.7 586.8,208.4" fill="#161d2f" stroke="#161d2f" stroke-width="0.7" stroke-linejoin="round"/><polygon points="0,205.7 47.8,220.7 39.8,258.6" fill="#1d1829" stroke="#1d1829" stroke-width="0.7" stroke-linejoin="round"/><polygon points="0,205.7 39.8,258.6 0,257.1" fill="#191324" stroke="#191324" stroke-width="0.7" stroke-linejoin="round"/><polygon points="47.8,220.7 94.9,217.1 39.8,258.6" fill="#1b1627" stroke="#1b1627" stroke-width="0.7" stroke-linejoin="round"/><polygon points="94.9,217.1 122.7,255.7 39.8,258.6" fill="#140e1f" stroke="#140e1f" stroke-width="0.7" stroke-linejoin="round"/><polygon points="94.9,217.1 154.9,218.5 158,269.5" fill="#120c1d" stroke="#120c1d" stroke-width="0.7" stroke-linejoin="round"/><polygon points="94.9,217.1 158,269.5 122.7,255.7" fill="#110c1c" stroke="#110c1c" stroke-width="0.7" stroke-linejoin="round"/><polygon points="154.9,218.5 196.7,223.3 158,269.5" fill="#191325" stroke="#191325" stroke-width="0.7" stroke-linejoin="round"/><polygon points="196.7,223.3 216.9,241.3 158,269.5" fill="#1b1626" stroke="#1b1626" stroke-width="0.7" stroke-linejoin="round"/><polygon points="196.7,223.3 252.1,219.7 259.3,244" fill="#120d1d" stroke="#120d1d" stroke-width="0.7" stroke-linejoin="round"/><polygon points="196.7,223.3 259.3,244 216.9,241.3" fill="#120c1e" stroke="#120c1e" stroke-width="0.7" stroke-linejoin="round"/><polygon points="252.1,219.7 321.4,223.6 259.3,244" fill="#120d1d" stroke="#120d1d" stroke-width="0.7" stroke-linejoin="round"/><polygon points="321.4,223.6 337.6,251.6 259.3,244" fill="#221d2d" stroke="#221d2d" stroke-width="0.7" stroke-linejoin="round"/><polygon points="321.4,223.6 372.6,204.3 353.3,250.3" fill="#151022" stroke="#151022" stroke-width="0.7" stroke-linejoin="round"/><polygon points="321.4,223.6 353.3,250.3 337.6,251.6" fill="#211c2d" stroke="#211c2d" stroke-width="0.7" stroke-linejoin="round"/><polygon points="372.6,204.3 425.9,198.8 353.3,250.3" fill="#221c2d" stroke="#221c2d" stroke-width="0.7" stroke-linejoin="round"/><polygon points="425.9,198.8 431.4,254.4 353.3,250.3" fill="#120d1e" stroke="#120d1e" stroke-width="0.7" stroke-linejoin="round"/><polygon points="425.9,198.8 463.7,209.9 476,241" fill="#121020" stroke="#121020" stroke-width="0.7" stroke-linejoin="round"/><polygon points="425.9,198.8 476,241 431.4,254.4" fill="#151122" stroke="#151122" stroke-width="0.7" stroke-linejoin="round"/><polygon points="463.7,209.9 531.8,206.4 476,241" fill="#111121" stroke="#111121" stroke-width="0.7" stroke-linejoin="round"/><polygon points="531.8,206.4 515.1,265.5 476,241" fill="#121121" stroke="#121121" stroke-width="0.7" stroke-linejoin="round"/><polygon points="531.8,206.4 586.8,208.4 586.2,260" fill="#121525" stroke="#121525" stroke-width="0.7" stroke-linejoin="round"/><polygon points="531.8,206.4 586.2,260 515.1,265.5" fill="#171726" stroke="#171726" stroke-width="0.7" stroke-linejoin="round"/><polygon points="586.8,208.4 640,205.7 586.2,260" fill="#101524" stroke="#101524" stroke-width="0.7" stroke-linejoin="round"/><polygon points="640,205.7 640,257.1 586.2,260" fill="#111424" stroke="#111424" stroke-width="0.7" stroke-linejoin="round"/><polygon points="0,257.1 39.8,258.6 0,308.6" fill="#1e1b29" stroke="#1e1b29" stroke-width="0.7" stroke-linejoin="round"/><polygon points="39.8,258.6 51.4,304 0,308.6" fill="#181422" stroke="#181422" stroke-width="0.7" stroke-linejoin="round"/><polygon points="39.8,258.6 122.7,255.7 125.5,313.3" fill="#100c1b" stroke="#100c1b" stroke-width="0.7" stroke-linejoin="round"/><polygon points="39.8,258.6 125.5,313.3 51.4,304" fill="#100b1a" stroke="#100b1a" stroke-width="0.7" stroke-linejoin="round"/><polygon points="122.7,255.7 158,269.5 125.5,313.3" fill="#1d1928" stroke="#1d1928" stroke-width="0.7" stroke-linejoin="round"/><polygon points="158,269.5 158.7,302.3 125.5,313.3" fill="#120d1c" stroke="#120d1c" stroke-width="0.7" stroke-linejoin="round"/><polygon points="158,269.5 216.9,241.3 231.8,316.2" fill="#201c2a" stroke="#201c2a" stroke-width="0.7" stroke-linejoin="round"/><polygon points="158,269.5 231.8,316.2 158.7,302.3" fill="#0f0c1a" stroke="#0f0c1a" stroke-width="0.7" stroke-linejoin="round"/><polygon points="216.9,241.3 259.3,244 231.8,316.2" fill="#120d1d" stroke="#120d1d" stroke-width="0.7" stroke-linejoin="round"/><polygon points="259.3,244 245.6,315.7 231.8,316.2" fill="#100c1a" stroke="#100c1a" stroke-width="0.7" stroke-linejoin="round"/><polygon points="259.3,244 337.6,251.6 307.5,322.5" fill="#110d1b" stroke="#110d1b" stroke-width="0.7" stroke-linejoin="round"/><polygon points="259.3,244 307.5,322.5 245.6,315.7" fill="#100b1a" stroke="#100b1a" stroke-width="0.7" stroke-linejoin="round"/><polygon points="337.6,251.6 353.3,250.3 307.5,322.5" fill="#181422" stroke="#181422" stroke-width="0.7" stroke-linejoin="round"/><polygon points="353.3,250.3 373,317.2 307.5,322.5" fill="#100c1a" stroke="#100c1a" stroke-width="0.7" stroke-linejoin="round"/><polygon points="353.3,250.3 431.4,254.4 422.6,299" fill="#191423" stroke="#191423" stroke-width="0.7" stroke-linejoin="round"/><polygon points="353.3,250.3 422.6,299 373,317.2" fill="#211c2a" stroke="#211c2a" stroke-width="0.7" stroke-linejoin="round"/><polygon points="431.4,254.4 476,241 422.6,299" fill="#110c1b" stroke="#110c1b" stroke-width="0.7" stroke-linejoin="round"/><polygon points="476,241 466.5,312.2 422.6,299" fill="#211c2a" stroke="#211c2a" stroke-width="0.7" stroke-linejoin="round"/><polygon points="476,241 515.1,265.5 514.4,288.8" fill="#110d1c" stroke="#110d1c" stroke-width="0.7" stroke-linejoin="round"/><polygon points="476,241 514.4,288.8 466.5,312.2" fill="#100d1b" stroke="#100d1b" stroke-width="0.7" stroke-linejoin="round"/><polygon points="515.1,265.5 586.2,260 514.4,288.8" fill="#171523" stroke="#171523" stroke-width="0.7" stroke-linejoin="round"/><polygon points="586.2,260 593.7,313.4 514.4,288.8" fill="#110e1c" stroke="#110e1c" stroke-width="0.7" stroke-linejoin="round"/><polygon points="586.2,260 640,257.1 640,308.6" fill="#101320" stroke="#101320" stroke-width="0.7" stroke-linejoin="round"/><polygon points="586.2,260 640,308.6 593.7,313.4" fill="#181725" stroke="#181725" stroke-width="0.7" stroke-linejoin="round"/><polygon points="0,308.6 51.4,304 53.3,360" fill="#1c1a26" stroke="#1c1a26" stroke-width="0.7" stroke-linejoin="round"/><polygon points="0,308.6 53.3,360 0,360" fill="#0e0a16" stroke="#0e0a16" stroke-width="0.7" stroke-linejoin="round"/><polygon points="51.4,304 125.5,313.3 53.3,360" fill="#1c1925" stroke="#1c1925" stroke-width="0.7" stroke-linejoin="round"/><polygon points="125.5,313.3 106.7,360 53.3,360" fill="#0e0a15" stroke="#0e0a15" stroke-width="0.7" stroke-linejoin="round"/><polygon points="125.5,313.3 158.7,302.3 160,360" fill="#15121f" stroke="#15121f" stroke-width="0.7" stroke-linejoin="round"/><polygon points="125.5,313.3 160,360 106.7,360" fill="#0f0b17" stroke="#0f0b17" stroke-width="0.7" stroke-linejoin="round"/><polygon points="158.7,302.3 231.8,316.2 160,360" fill="#181521" stroke="#181521" stroke-width="0.7" stroke-linejoin="round"/><polygon points="231.8,316.2 213.3,360 160,360" fill="#0e0a16" stroke="#0e0a16" stroke-width="0.7" stroke-linejoin="round"/><polygon points="231.8,316.2 245.6,315.7 266.7,360" fill="#0f0c18" stroke="#0f0c18" stroke-width="0.7" stroke-linejoin="round"/><polygon points="231.8,316.2 266.7,360 213.3,360" fill="#17131e" stroke="#17131e" stroke-width="0.7" stroke-linejoin="round"/><polygon points="245.6,315.7 307.5,322.5 266.7,360" fill="#1b1823" stroke="#1b1823" stroke-width="0.7" stroke-linejoin="round"/><polygon points="307.5,322.5 320,360 266.7,360" fill="#0f0c18" stroke="#0f0c18" stroke-width="0.7" stroke-linejoin="round"/><polygon points="307.5,322.5 373,317.2 373.3,360" fill="#0f0c18" stroke="#0f0c18" stroke-width="0.7" stroke-linejoin="round"/><polygon points="307.5,322.5 373.3,360 320,360" fill="#0d0a15" stroke="#0d0a15" stroke-width="0.7" stroke-linejoin="round"/><polygon points="373,317.2 422.6,299 373.3,360" fill="#0e0b17" stroke="#0e0b17" stroke-width="0.7" stroke-linejoin="round"/><polygon points="422.6,299 426.7,360 373.3,360" fill="#1e1a25" stroke="#1e1a25" stroke-width="0.7" stroke-linejoin="round"/><polygon points="422.6,299 466.5,312.2 480,360" fill="#0f0c19" stroke="#0f0c19" stroke-width="0.7" stroke-linejoin="round"/><polygon points="422.6,299 480,360 426.7,360" fill="#110d19" stroke="#110d19" stroke-width="0.7" stroke-linejoin="round"/><polygon points="466.5,312.2 514.4,288.8 480,360" fill="#181420" stroke="#181420" stroke-width="0.7" stroke-linejoin="round"/><polygon points="514.4,288.8 533.3,360 480,360" fill="#0f0b18" stroke="#0f0b18" stroke-width="0.7" stroke-linejoin="round"/><polygon points="514.4,288.8 593.7,313.4 586.7,360" fill="#100c18" stroke="#100c18" stroke-width="0.7" stroke-linejoin="round"/><polygon points="514.4,288.8 586.7,360 533.3,360" fill="#0f0b17" stroke="#0f0b17" stroke-width="0.7" stroke-linejoin="round"/><polygon points="593.7,313.4 640,308.6 586.7,360" fill="#0e0d18" stroke="#0e0d18" stroke-width="0.7" stroke-linejoin="round"/><polygon points="640,308.6 640,360 586.7,360" fill="#110e1a" stroke="#110e1a" stroke-width="0.7" stroke-linejoin="round"/>
<g transform="translate(528 44) scale(0.9)">
<polygon points="32,2 10,22 32,26" fill="#D2A8F0"/><polygon points="32,2 54,22 32,26" fill="#B57EDC"/>
<polygon points="10,22 32,26 20,46" fill="#9B59B6"/><polygon points="54,22 32,26 44,46" fill="#7D3C98"/>
<polygon points="20,46 32,26 32,62" fill="#8E44AD"/><polygon points="44,46 32,26 32,62" fill="#5B2C7A"/>
</g>
<g transform="translate(586 118) scale(0.5)">
<polygon points="32,2 10,22 32,26" fill="#D2A8F0"/><polygon points="32,2 54,22 32,26" fill="#B57EDC"/>
<polygon points="10,22 32,26 20,46" fill="#9B59B6"/><polygon points="54,22 32,26 44,46" fill="#7D3C98"/>
<polygon points="20,46 32,26 32,62" fill="#8E44AD"/><polygon points="44,46 32,26 32,62" fill="#5B2C7A"/>
</g>
<g transform="translate(540 150) scale(0.35)">
<polygon points="32,2 10,22 32,26" fill="#D2A8F0"/><polygon points="32,2 54,22 32,26" fill="#B57EDC"/>
<polygon points="10,22 32,26 20,46" fill="#9B59B6"/><polygon points="54,22 32,26 44,46" fill="#7D3C98"/>
<polygon points="20,46 32,26 32,62" fill="#8E44AD"/><polygon points="44,46 32,26 32,62" fill="#5B2C7A"/>
</g>
<polygon points="70,34 500,34 500,304 486,318 56,318 56,48" fill="#1E1E1E" stroke="#3a3a3a" stroke-width="2"/><polygon points="70,34 500,34 500,66 56,66 56,48" fill="#262626"/><polygon points="85,50 82.5,54.3 77.5,54.3 75,50 77.5,45.7 82.5,45.7" fill="#F5792A"/><polygon points="102,50 99.5,54.3 94.5,54.3 92,50 94.5,45.7 99.5,45.7" fill="#FFD166"/><polygon points="119,50 116.5,54.3 111.5,54.3 109,50 111.5,45.7 116.5,45.7" fill="#00E5FF"/><polygon points="140,42 470,42 470,58 140,58" fill="#141414"/><polygon points="155.2,50 153.6,52.8 150.4,52.8 148.8,50 150.4,47.2 153.6,47.2" fill="#5CF0FF"/><polygon points="163,48 300,48 300,52 163,52" fill="#ffffff" opacity="0.18"/>
<polygon points="64,72 117.5,72 96.6,110.6" fill="#eaeaee" stroke="#eaeaee" stroke-width="0.7" stroke-linejoin="round"/><polygon points="64,72 96.6,110.6 64,131.5" fill="#f0f0f4" stroke="#f0f0f4" stroke-width="0.7" stroke-linejoin="round"/><polygon points="117.5,72 171,72 96.6,110.6" fill="#efeff3" stroke="#efeff3" stroke-width="0.7" stroke-linejoin="round"/><polygon points="171,72 191.4,141 96.6,110.6" fill="#eeeef3" stroke="#eeeef3" stroke-width="0.7" stroke-linejoin="round"/><polygon points="171,72 224.5,72 225.4,127" fill="#f1f1f4" stroke="#f1f1f4" stroke-width="0.7" stroke-linejoin="round"/><polygon points="171,72 225.4,127 191.4,141" fill="#f0f0f3" stroke="#f0f0f3" stroke-width="0.7" stroke-linejoin="round"/><polygon points="224.5,72 278,72 225.4,127" fill="#f2f2f5" stroke="#f2f2f5" stroke-width="0.7" stroke-linejoin="round"/><polygon points="278,72 276.6,119.1 225.4,127" fill="#f0f0f4" stroke="#f0f0f4" stroke-width="0.7" stroke-linejoin="round"/><polygon points="278,72 331.5,72 333.8,142.4" fill="#eeeef2" stroke="#eeeef2" stroke-width="0.7" stroke-linejoin="round"/><polygon points="278,72 333.8,142.4 276.6,119.1" fill="#ececf0" stroke="#ececf0" stroke-width="0.7" stroke-linejoin="round"/><polygon points="331.5,72 385,72 333.8,142.4" fill="#eaeaee" stroke="#eaeaee" stroke-width="0.7" stroke-linejoin="round"/><polygon points="385,72 374.6,115.1 333.8,142.4" fill="#e8e8ec" stroke="#e8e8ec" stroke-width="0.7" stroke-linejoin="round"/><polygon points="385,72 438.5,72 449.8,132.4" fill="#f1f1f5" stroke="#f1f1f5" stroke-width="0.7" stroke-linejoin="round"/><polygon points="385,72 449.8,132.4 374.6,115.1" fill="#ededf1" stroke="#ededf1" stroke-width="0.7" stroke-linejoin="round"/><polygon points="438.5,72 492,72 449.8,132.4" fill="#ebebef" stroke="#ebebef" stroke-width="0.7" stroke-linejoin="round"/><polygon points="492,72 492,131.5 449.8,132.4" fill="#efeff3" stroke="#efeff3" stroke-width="0.7" stroke-linejoin="round"/><polygon points="64,131.5 96.6,110.6 64,191" fill="#e8e8ed" stroke="#e8e8ed" stroke-width="0.7" stroke-linejoin="round"/><polygon points="96.6,110.6 104.5,184.7 64,191" fill="#e0e0e5" stroke="#e0e0e5" stroke-width="0.7" stroke-linejoin="round"/><polygon points="96.6,110.6 191.4,141 162.2,192.7" fill="#eaeaf0" stroke="#eaeaf0" stroke-width="0.7" stroke-linejoin="round"/><polygon points="96.6,110.6 162.2,192.7 104.5,184.7" fill="#eaeaef" stroke="#eaeaef" stroke-width="0.7" stroke-linejoin="round"/><polygon points="191.4,141 225.4,127 162.2,192.7" fill="#eaeaef" stroke="#eaeaef" stroke-width="0.7" stroke-linejoin="round"/><polygon points="225.4,127 215.8,213.8 162.2,192.7" fill="#e8e8ed" stroke="#e8e8ed" stroke-width="0.7" stroke-linejoin="round"/><polygon points="225.4,127 276.6,119.1 267.2,209" fill="#eaeaef" stroke="#eaeaef" stroke-width="0.7" stroke-linejoin="round"/><polygon points="225.4,127 267.2,209 215.8,213.8" fill="#e7e7ed" stroke="#e7e7ed" stroke-width="0.7" stroke-linejoin="round"/><polygon points="276.6,119.1 333.8,142.4 267.2,209" fill="#e2e2e8" stroke="#e2e2e8" stroke-width="0.7" stroke-linejoin="round"/><polygon points="333.8,142.4 318.3,174 267.2,209" fill="#e7e7ed" stroke="#e7e7ed" stroke-width="0.7" stroke-linejoin="round"/><polygon points="333.8,142.4 374.6,115.1 370.2,181" fill="#ebebf0" stroke="#ebebf0" stroke-width="0.7" stroke-linejoin="round"/><polygon points="333.8,142.4 370.2,181 318.3,174" fill="#e9e9ef" stroke="#e9e9ef" stroke-width="0.7" stroke-linejoin="round"/><polygon points="374.6,115.1 449.8,132.4 370.2,181" fill="#ececf1" stroke="#ececf1" stroke-width="0.7" stroke-linejoin="round"/><polygon points="449.8,132.4 440.6,203.5 370.2,181" fill="#e8e8ed" stroke="#e8e8ed" stroke-width="0.7" stroke-linejoin="round"/><polygon points="449.8,132.4 492,131.5 492,191" fill="#eaeaef" stroke="#eaeaef" stroke-width="0.7" stroke-linejoin="round"/><polygon points="449.8,132.4 492,191 440.6,203.5" fill="#e8e8ee" stroke="#e8e8ee" stroke-width="0.7" stroke-linejoin="round"/><polygon points="64,191 104.5,184.7 99.3,270.2" fill="#e3e3ea" stroke="#e3e3ea" stroke-width="0.7" stroke-linejoin="round"/><polygon points="64,191 99.3,270.2 64,250.5" fill="#dfdfe7" stroke="#dfdfe7" stroke-width="0.7" stroke-linejoin="round"/><polygon points="104.5,184.7 162.2,192.7 99.3,270.2" fill="#e3e3ea" stroke="#e3e3ea" stroke-width="0.7" stroke-linejoin="round"/><polygon points="162.2,192.7 173.3,256.3 99.3,270.2" fill="#d6d6de" stroke="#d6d6de" stroke-width="0.7" stroke-linejoin="round"/><polygon points="162.2,192.7 215.8,213.8 232.2,272.7" fill="#e1e1e8" stroke="#e1e1e8" stroke-width="0.7" stroke-linejoin="round"/><polygon points="162.2,192.7 232.2,272.7 173.3,256.3" fill="#dcdce4" stroke="#dcdce4" stroke-width="0.7" stroke-linejoin="round"/><polygon points="215.8,213.8 267.2,209 232.2,272.7" fill="#e1e1e8" stroke="#e1e1e8" stroke-width="0.7" stroke-linejoin="round"/><polygon points="267.2,209 283.3,270.5 232.2,272.7" fill="#dddde6" stroke="#dddde6" stroke-width="0.7" stroke-linejoin="round"/><polygon points="267.2,209 318.3,174 345.5,228.6" fill="#e4e4ea" stroke="#e4e4ea" stroke-width="0.7" stroke-linejoin="round"/><polygon points="267.2,209 345.5,228.6 283.3,270.5" fill="#e0e0e8" stroke="#e0e0e8" stroke-width="0.7" stroke-linejoin="round"/><polygon points="318.3,174 370.2,181 345.5,228.6" fill="#e5e5eb" stroke="#e5e5eb" stroke-width="0.7" stroke-linejoin="round"/><polygon points="370.2,181 371.1,243.7 345.5,228.6" fill="#e3e3ea" stroke="#e3e3ea" stroke-width="0.7" stroke-linejoin="round"/><polygon points="370.2,181 440.6,203.5 435.3,227.7" fill="#e2e2e9" stroke="#e2e2e9" stroke-width="0.7" stroke-linejoin="round"/><polygon points="370.2,181 435.3,227.7 371.1,243.7" fill="#e2e2e9" stroke="#e2e2e9" stroke-width="0.7" stroke-linejoin="round"/><polygon points="440.6,203.5 492,191 435.3,227.7" fill="#e4e4ea" stroke="#e4e4ea" stroke-width="0.7" stroke-linejoin="round"/><polygon points="492,191 492,250.5 435.3,227.7" fill="#e1e1e8" stroke="#e1e1e8" stroke-width="0.7" stroke-linejoin="round"/><polygon points="64,250.5 99.3,270.2 64,310" fill="#d7d7e0" stroke="#d7d7e0" stroke-width="0.7" stroke-linejoin="round"/><polygon points="99.3,270.2 117.5,310 64,310" fill="#d3d3dc" stroke="#d3d3dc" stroke-width="0.7" stroke-linejoin="round"/><polygon points="99.3,270.2 173.3,256.3 171,310" fill="#d1d1da" stroke="#d1d1da" stroke-width="0.7" stroke-linejoin="round"/><polygon points="99.3,270.2 171,310 117.5,310" fill="#d0d0d8" stroke="#d0d0d8" stroke-width="0.7" stroke-linejoin="round"/><polygon points="173.3,256.3 232.2,272.7 171,310" fill="#dbdbe4" stroke="#dbdbe4" stroke-width="0.7" stroke-linejoin="round"/><polygon points="232.2,272.7 224.5,310 171,310" fill="#d9d9e2" stroke="#d9d9e2" stroke-width="0.7" stroke-linejoin="round"/><polygon points="232.2,272.7 283.3,270.5 278,310" fill="#d9d9e2" stroke="#d9d9e2" stroke-width="0.7" stroke-linejoin="round"/><polygon points="232.2,272.7 278,310 224.5,310" fill="#d0d0d8" stroke="#d0d0d8" stroke-width="0.7" stroke-linejoin="round"/><polygon points="283.3,270.5 345.5,228.6 278,310" fill="#dbdbe4" stroke="#dbdbe4" stroke-width="0.7" stroke-linejoin="round"/><polygon points="345.5,228.6 331.5,310 278,310" fill="#d9d9e3" stroke="#d9d9e3" stroke-width="0.7" stroke-linejoin="round"/><polygon points="345.5,228.6 371.1,243.7 385,310" fill="#dddde5" stroke="#dddde5" stroke-width="0.7" stroke-linejoin="round"/><polygon points="345.5,228.6 385,310 331.5,310" fill="#dbdbe4" stroke="#dbdbe4" stroke-width="0.7" stroke-linejoin="round"/><polygon points="371.1,243.7 435.3,227.7 385,310" fill="#d8d8e1" stroke="#d8d8e1" stroke-width="0.7" stroke-linejoin="round"/><polygon points="435.3,227.7 438.5,310 385,310" fill="#dadae4" stroke="#dadae4" stroke-width="0.7" stroke-linejoin="round"/><polygon points="435.3,227.7 492,250.5 492,310" fill="#dcdce5" stroke="#dcdce5" stroke-width="0.7" stroke-linejoin="round"/><polygon points="435.3,227.7 492,310 438.5,310" fill="#dadae4" stroke="#dadae4" stroke-width="0.7" stroke-linejoin="round"/>
<polygon points="200,222 360,222 280,258" fill="#86d0ae" stroke="#86d0ae" stroke-width="0.7" stroke-linejoin="round"/><polygon points="360,222 410,300 280,258" fill="#6fb896" stroke="#6fb896" stroke-width="0.7" stroke-linejoin="round"/><polygon points="410,300 150,300 280,258" fill="#65a98a" stroke="#65a98a" stroke-width="0.7" stroke-linejoin="round"/><polygon points="150,300 200,222 280,258" fill="#7BC8A4" stroke="#7BC8A4" stroke-width="0.7" stroke-linejoin="round"/>
<polygon points="325.2,209.6 306.3,215.5 308.2,215.1" fill="#881435" stroke="#881435" stroke-width="0.7" stroke-linejoin="round"/><polygon points="291.8,136.9 315.2,136.9 293.7,136.5" fill="#f97093" stroke="#f97093" stroke-width="0.7" stroke-linejoin="round"/><polygon points="315.2,136.9 330.9,152.2 332.8,151.8" fill="#f03262" stroke="#f03262" stroke-width="0.7" stroke-linejoin="round"/><polygon points="341.2,168.4 332.8,151.8 330.9,152.2" fill="#d62754" stroke="#d62754" stroke-width="0.7" stroke-linejoin="round"/><polygon points="258.8,183.6 262.2,176 261,160.7" fill="#f97295" stroke="#f97295" stroke-width="0.7" stroke-linejoin="round"/><polygon points="274.8,142.4 261,160.7 271.6,151.8" fill="#fd8dab" stroke="#fd8dab" stroke-width="0.7" stroke-linejoin="round"/><polygon points="258.8,183.6 267.2,200.2 262.2,176" fill="#f55981" stroke="#f55981" stroke-width="0.7" stroke-linejoin="round"/><polygon points="325.2,209.6 339,191.3 325.3,200.7" fill="#95173a" stroke="#95173a" stroke-width="0.7" stroke-linejoin="round"/><polygon points="285.4,209.6 267.2,200.2 284.8,215.1" fill="#d62754" stroke="#d62754" stroke-width="0.7" stroke-linejoin="round"/><polygon points="341.2,168.4 334.7,176.5 339,191.3" fill="#af1e45" stroke="#af1e45" stroke-width="0.7" stroke-linejoin="round"/><polygon points="274.8,142.4 271.6,151.8 291.8,136.9" fill="#fe95b1" stroke="#fe95b1" stroke-width="0.7" stroke-linejoin="round"/><polygon points="285.4,209.6 284.8,215.1 306.3,215.5" fill="#b61f47" stroke="#b61f47" stroke-width="0.7" stroke-linejoin="round"/><polygon points="261,160.7 262.2,176 271.6,151.8" fill="#fd8aa8" stroke="#fd8aa8" stroke-width="0.7" stroke-linejoin="round"/><polygon points="325.2,209.6 325.3,200.7 306.3,215.5" fill="#9d1a3d" stroke="#9d1a3d" stroke-width="0.7" stroke-linejoin="round"/><polygon points="311.3,143 315.2,136.9 291.8,136.9" fill="#f97598" stroke="#f97598" stroke-width="0.7" stroke-linejoin="round"/><polygon points="311.3,143 330.9,152.2 315.2,136.9" fill="#f5537d" stroke="#f5537d" stroke-width="0.7" stroke-linejoin="round"/><polygon points="341.2,168.4 330.9,152.2 334.7,176.5" fill="#d72755" stroke="#d72755" stroke-width="0.7" stroke-linejoin="round"/><polygon points="339,191.3 334.7,176.5 325.3,200.7" fill="#ae1d44" stroke="#ae1d44" stroke-width="0.7" stroke-linejoin="round"/><polygon points="262.2,176 267.2,200.2 277.8,191.3" fill="#f65d84" stroke="#f65d84" stroke-width="0.7" stroke-linejoin="round"/><polygon points="285.4,209.6 277.8,191.3 267.2,200.2" fill="#f13e6c" stroke="#f13e6c" stroke-width="0.7" stroke-linejoin="round"/><polygon points="271.6,151.8 293,152.2 291.8,136.9" fill="#ff99b4" stroke="#ff99b4" stroke-width="0.7" stroke-linejoin="round"/><polygon points="285.4,209.6 306.3,215.5 302,200.7" fill="#cb2450" stroke="#cb2450" stroke-width="0.7" stroke-linejoin="round"/><polygon points="325.3,200.7 302,200.7 306.3,215.5" fill="#be214a" stroke="#be214a" stroke-width="0.7" stroke-linejoin="round"/><polygon points="311.3,143 291.8,136.9 293,152.2" fill="#fd8ba9" stroke="#fd8ba9" stroke-width="0.7" stroke-linejoin="round"/><polygon points="276.9,168.4 271.6,151.8 262.2,176" fill="#fd90ad" stroke="#fd90ad" stroke-width="0.7" stroke-linejoin="round"/><polygon points="311.3,143 317.2,161.6 330.9,152.2" fill="#f5557e" stroke="#f5557e" stroke-width="0.7" stroke-linejoin="round"/><polygon points="334.7,176.5 330.9,152.2 317.2,161.6" fill="#f03565" stroke="#f03565" stroke-width="0.7" stroke-linejoin="round"/><polygon points="317.9,184.5 325.3,200.7 334.7,176.5" fill="#cd2550" stroke="#cd2550" stroke-width="0.7" stroke-linejoin="round"/><polygon points="276.9,168.4 262.2,176 277.8,191.3" fill="#fa7799" stroke="#fa7799" stroke-width="0.7" stroke-linejoin="round"/><polygon points="285.4,209.6 302,200.7 277.8,191.3" fill="#f03766" stroke="#f03766" stroke-width="0.7" stroke-linejoin="round"/><polygon points="276.9,168.4 293,152.2 271.6,151.8" fill="#fe98b3" stroke="#fe98b3" stroke-width="0.7" stroke-linejoin="round"/><polygon points="311.3,143 293,152.2 317.2,161.6" fill="#fa789a" stroke="#fa789a" stroke-width="0.7" stroke-linejoin="round"/><polygon points="317.9,184.5 302,200.7 325.3,200.7" fill="#d62754" stroke="#d62754" stroke-width="0.7" stroke-linejoin="round"/><polygon points="317.9,184.5 334.7,176.5 317.2,161.6" fill="#f03363" stroke="#f03363" stroke-width="0.7" stroke-linejoin="round"/><polygon points="302,200.7 296.9,176.5 277.8,191.3" fill="#f4507a" stroke="#f4507a" stroke-width="0.7" stroke-linejoin="round"/><polygon points="276.9,168.4 277.8,191.3 296.9,176.5" fill="#f97093" stroke="#f97093" stroke-width="0.7" stroke-linejoin="round"/><polygon points="276.9,168.4 296.9,176.5 293,152.2" fill="#fc84a4" stroke="#fc84a4" stroke-width="0.7" stroke-linejoin="round"/><polygon points="293,152.2 296.9,176.5 317.2,161.6" fill="#f97597" stroke="#f97597" stroke-width="0.7" stroke-linejoin="round"/><polygon points="317.9,184.5 296.9,176.5 302,200.7" fill="#f2426f" stroke="#f2426f" stroke-width="0.7" stroke-linejoin="round"/><polygon points="317.9,184.5 317.2,161.6 296.9,176.5" fill="#f5567f" stroke="#f5567f" stroke-width="0.7" stroke-linejoin="round"/>
<polygon points="262,262 247,267.7 217,267.7 202,262 217,256.3 247,256.3" fill="#000000" opacity="0.2"/><polygon points="204,206 230,194 256,206 230,218" fill="#9fe6f0" stroke="#9fe6f0" stroke-width="0.7" stroke-linejoin="round"/><polygon points="204,206 230,218 230,258 204,246" fill="#4CC3D9" stroke="#4CC3D9" stroke-width="0.7" stroke-linejoin="round"/><polygon points="256,206 230,218 230,258 256,246" fill="#3597ab" stroke="#3597ab" stroke-width="0.7" stroke-linejoin="round"/>
<polygon points="378,258 367,262.2 345,262.2 334,258 345,253.8 367,253.8" fill="#000000" opacity="0.2"/><polygon points="368,212 363.3,216.2 363.3,260.2 368,256" fill="#d29e3d" stroke="#d29e3d" stroke-width="0.7" stroke-linejoin="round"/><polygon points="363.3,216.2 352,218 352,262 363.3,260.2" fill="#ffc65d" stroke="#ffc65d" stroke-width="0.7" stroke-linejoin="round"/><polygon points="352,218 340.7,216.2 340.7,260.2 352,262" fill="#ffd88a" stroke="#ffd88a" stroke-width="0.7" stroke-linejoin="round"/><polygon points="340.7,216.2 336,212 336,256 340.7,260.2" fill="#ffdf9c" stroke="#ffdf9c" stroke-width="0.7" stroke-linejoin="round"/><polygon points="368,212 363.3,216.2 352,218 340.7,216.2 336,212 340.7,207.8 352,206 363.3,207.8" fill="#ffe2a3" stroke="#ffe2a3" stroke-width="0.7" stroke-linejoin="round"/>
<g transform="translate(424 190) scale(2.9)">
<polygon points="6,22 14,14 32,14 32,42 26,50 14,50 6,44" fill="#00B8CC"/>
<polygon points="58,22 50,14 32,14 32,42 38,50 50,50 58,44" fill="#008A99"/>
<polygon points="6,22 14,14 50,14 58,22" fill="#5CF0FF"/>
<polygon points="13,32 16.5,26 23.5,26 27,32 23.5,38 16.5,38" fill="#121212"/>
<polygon points="37,32 40.5,26 47.5,26 51,32 47.5,38 40.5,38" fill="#121212"/>
<polygon points="16.5,26 23.5,26 20,31" fill="#1E3A40"/>
<polygon points="40.5,26 47.5,26 44,31" fill="#1E3A40"/>
</g>
</svg>
