<svg xmlns="http://www.w3.org/2000/svg" viewBox="0 0 320 240">
<!-- Malla: la mitad izquierda es solo alambre (vértices y aristas) y la derecha tiene sus caras cubiertas. -->
<polygon points="0,0 45.7,0 61.2,41.6" fill="#21192d" stroke="#21192d" stroke-width="0.7" stroke-linejoin="round"/><polygon points="0,0 61.2,41.6 0,48" fill="#1a1226" stroke="#1a1226" stroke-width="0.7" stroke-linejoin="round"/><polygon points="45.7,0 91.4,0 61.2,41.6" fill="#1a1226" stroke="#1a1226" stroke-width="0.7" stroke-linejoin="round"/><polygon points="91.4,0 81.2,31.9 61.2,41.6" fill="#261d32" stroke="#261d32" stroke-width="0.7" stroke-linejoin="round"/><polygon points="91.4,0 137.1,0 127.4,48.3" fill="#2e253b" stroke="#2e253b" stroke-width="0.7" stroke-linejoin="round"/><polygon points="91.4,0 127.4,48.3 81.2,31.9" fill="#1a1227" stroke="#1a1227" stroke-width="0.7" stroke-linejoin="round"/><polygon points="137.1,0 182.9,0 127.4,48.3" fill="#1e152d" stroke="#1e152d" stroke-width="0.7" stroke-linejoin="round"/><polygon points="182.9,0 167.4,66.2 127.4,48.3" fill="#2d233a" stroke="#2d233a" stroke-width="0.7" stroke-linejoin="round"/><polygon points="182.9,0 228.6,0 233,55.3" fill="#271d36" stroke="#271d36" stroke-width="0.7" stroke-linejoin="round"/><polygon points="182.9,0 233,55.3 167.4,66.2" fill="#211730" stroke="#211730" stroke-width="0.7" stroke-linejoin="round"/><polygon points="228.6,0 274.3,0 233,55.3" fill="#322841" stroke="#322841" stroke-width="0.7" stroke-linejoin="round"/><polygon points="274.3,0 284.1,43 233,55.3" fill="#20152f" stroke="#20152f" stroke-width="0.7" stroke-linejoin="round"/><polygon points="274.3,0 320,0 320,48" fill="#2c213d" stroke="#2c213d" stroke-width="0.7" stroke-linejoin="round"/><polygon points="274.3,0 320,48 284.1,43" fill="#211632" stroke="#211632" stroke-width="0.7" stroke-linejoin="round"/><polygon points="0,48 61.2,41.6 0,96" fill="#191124" stroke="#191124" stroke-width="0.7" stroke-linejoin="round"/><polygon points="61.2,41.6 54.2,110.4 0,96" fill="#1f192b" stroke="#1f192b" stroke-width="0.7" stroke-linejoin="round"/><polygon points="61.2,41.6 81.2,31.9 92.5,105.3" fill="#181124" stroke="#181124" stroke-width="0.7" stroke-linejoin="round"/><polygon points="61.2,41.6 92.5,105.3 54.2,110.4" fill="#181123" stroke="#181123" stroke-width="0.7" stroke-linejoin="round"/><polygon points="81.2,31.9 127.4,48.3 92.5,105.3" fill="#1b1328" stroke="#1b1328" stroke-width="0.7" stroke-linejoin="round"/><polygon points="127.4,48.3 134.3,95.6 92.5,105.3" fill="#251e31" stroke="#251e31" stroke-width="0.7" stroke-linejoin="round"/><polygon points="127.4,48.3 167.4,66.2 191.5,112.5" fill="#292136" stroke="#292136" stroke-width="0.7" stroke-linejoin="round"/><polygon points="127.4,48.3 191.5,112.5 134.3,95.6" fill="#1a1226" stroke="#1a1226" stroke-width="0.7" stroke-linejoin="round"/><polygon points="167.4,66.2 233,55.3 191.5,112.5" fill="#1d142b" stroke="#1d142b" stroke-width="0.7" stroke-linejoin="round"/><polygon points="233,55.3 246.1,94.9 191.5,112.5" fill="#231931" stroke="#231931" stroke-width="0.7" stroke-linejoin="round"/><polygon points="233,55.3 284.1,43 268.7,107.1" fill="#31273f" stroke="#31273f" stroke-width="0.7" stroke-linejoin="round"/><polygon points="233,55.3 268.7,107.1 246.1,94.9" fill="#231931" stroke="#231931" stroke-width="0.7" stroke-linejoin="round"/><polygon points="284.1,43 320,48 268.7,107.1" fill="#20152f" stroke="#20152f" stroke-width="0.7" stroke-linejoin="round"/><polygon points="320,48 320,96 268.7,107.1" fill="#271e37" stroke="#271e37" stroke-width="0.7" stroke-linejoin="round"/><polygon points="0,96 54.2,110.4 37.3,153.7" fill="#211a2b" stroke="#211a2b" stroke-width="0.7" stroke-linejoin="round"/><polygon points="0,96 37.3,153.7 0,144" fill="#15101e" stroke="#15101e" stroke-width="0.7" stroke-linejoin="round"/><polygon points="54.2,110.4 92.5,105.3 37.3,153.7" fill="#282232" stroke="#282232" stroke-width="0.7" stroke-linejoin="round"/><polygon points="92.5,105.3 92.4,138 37.3,153.7" fill="#211b2c" stroke="#211b2c" stroke-width="0.7" stroke-linejoin="round"/><polygon points="92.5,105.3 134.3,95.6 135.5,125.2" fill="#191124" stroke="#191124" stroke-width="0.7" stroke-linejoin="round"/><polygon points="92.5,105.3 135.5,125.2 92.4,138" fill="#2b2435" stroke="#2b2435" stroke-width="0.7" stroke-linejoin="round"/><polygon points="134.3,95.6 191.5,112.5 135.5,125.2" fill="#1a1326" stroke="#1a1326" stroke-width="0.7" stroke-linejoin="round"/><polygon points="191.5,112.5 182.3,145.5 135.5,125.2" fill="#2c2438" stroke="#2c2438" stroke-width="0.7" stroke-linejoin="round"/><polygon points="191.5,112.5 246.1,94.9 238.2,128.5" fill="#2d243a" stroke="#2d243a" stroke-width="0.7" stroke-linejoin="round"/><polygon points="191.5,112.5 238.2,128.5 182.3,145.5" fill="#1b1329" stroke="#1b1329" stroke-width="0.7" stroke-linejoin="round"/><polygon points="246.1,94.9 268.7,107.1 238.2,128.5" fill="#1c1329" stroke="#1c1329" stroke-width="0.7" stroke-linejoin="round"/><polygon points="268.7,107.1 285.5,140.3 238.2,128.5" fill="#1b1329" stroke="#1b1329" stroke-width="0.7" stroke-linejoin="round"/><polygon points="268.7,107.1 320,96 320,144" fill="#1d132a" stroke="#1d132a" stroke-width="0.7" stroke-linejoin="round"/><polygon points="268.7,107.1 320,144 285.5,140.3" fill="#1c142a" stroke="#1c142a" stroke-width="0.7" stroke-linejoin="round"/><polygon points="0,144 37.3,153.7 0,192" fill="#1a1623" stroke="#1a1623" stroke-width="0.7" stroke-linejoin="round"/><polygon points="37.3,153.7 39.5,193.8 0,192" fill="#130e1b" stroke="#130e1b" stroke-width="0.7" stroke-linejoin="round"/><polygon points="37.3,153.7 92.4,138 75.4,196.8" fill="#251f2e" stroke="#251f2e" stroke-width="0.7" stroke-linejoin="round"/><polygon points="37.3,153.7 75.4,196.8 39.5,193.8" fill="#25202e" stroke="#25202e" stroke-width="0.7" stroke-linejoin="round"/><polygon points="92.4,138 135.5,125.2 75.4,196.8" fill="#1e1828" stroke="#1e1828" stroke-width="0.7" stroke-linejoin="round"/><polygon points="135.5,125.2 129,194.2 75.4,196.8" fill="#161121" stroke="#161121" stroke-width="0.7" stroke-linejoin="round"/><polygon points="135.5,125.2 182.3,145.5 169.9,209.4" fill="#191224" stroke="#191224" stroke-width="0.7" stroke-linejoin="round"/><polygon points="135.5,125.2 169.9,209.4 129,194.2" fill="#1e1729" stroke="#1e1729" stroke-width="0.7" stroke-linejoin="round"/><polygon points="182.3,145.5 238.2,128.5 169.9,209.4" fill="#292234" stroke="#292234" stroke-width="0.7" stroke-linejoin="round"/><polygon points="238.2,128.5 241.5,208.2 169.9,209.4" fill="#191124" stroke="#191124" stroke-width="0.7" stroke-linejoin="round"/><polygon points="238.2,128.5 285.5,140.3 268.8,179.9" fill="#21192e" stroke="#21192e" stroke-width="0.7" stroke-linejoin="round"/><polygon points="238.2,128.5 268.8,179.9 241.5,208.2" fill="#231c30" stroke="#231c30" stroke-width="0.7" stroke-linejoin="round"/><polygon points="285.5,140.3 320,144 268.8,179.9" fill="#21182f" stroke="#21182f" stroke-width="0.7" stroke-linejoin="round"/><polygon points="320,144 320,192 268.8,179.9" fill="#2a2236" stroke="#2a2236" stroke-width="0.7" stroke-linejoin="round"/><polygon points="0,192 39.5,193.8 45.7,240" fill="#231f2b" stroke="#231f2b" stroke-width="0.7" stroke-linejoin="round"/><polygon points="0,192 45.7,240 0,240" fill="#1a1622" stroke="#1a1622" stroke-width="0.7" stroke-linejoin="round"/><polygon points="39.5,193.8 75.4,196.8 45.7,240" fill="#130e1a" stroke="#130e1a" stroke-width="0.7" stroke-linejoin="round"/><polygon points="75.4,196.8 91.4,240 45.7,240" fill="#1a1522" stroke="#1a1522" stroke-width="0.7" stroke-linejoin="round"/><polygon points="75.4,196.8 129,194.2 137.1,240" fill="#231d2b" stroke="#231d2b" stroke-width="0.7" stroke-linejoin="round"/><polygon points="75.4,196.8 137.1,240 91.4,240" fill="#140e1c" stroke="#140e1c" stroke-width="0.7" stroke-linejoin="round"/><polygon points="129,194.2 169.9,209.4 137.1,240" fill="#150f1f" stroke="#150f1f" stroke-width="0.7" stroke-linejoin="round"/><polygon points="169.9,209.4 182.9,240 137.1,240" fill="#1f1928" stroke="#1f1928" stroke-width="0.7" stroke-linejoin="round"/><polygon points="169.9,209.4 241.5,208.2 228.6,240" fill="#181122" stroke="#181122" stroke-width="0.7" stroke-linejoin="round"/><polygon points="169.9,209.4 228.6,240 182.9,240" fill="#2a2434" stroke="#2a2434" stroke-width="0.7" stroke-linejoin="round"/><polygon points="241.5,208.2 268.8,179.9 228.6,240" fill="#292234" stroke="#292234" stroke-width="0.7" stroke-linejoin="round"/><polygon points="268.8,179.9 274.3,240 228.6,240" fill="#171122" stroke="#171122" stroke-width="0.7" stroke-linejoin="round"/><polygon points="268.8,179.9 320,192 320,240" fill="#251d31" stroke="#251d31" stroke-width="0.7" stroke-linejoin="round"/><polygon points="268.8,179.9 320,240 274.3,240" fill="#1a1226" stroke="#1a1226" stroke-width="0.7" stroke-linejoin="round"/>
<polygon points="234,206 197,220.1 123,220.1 86,206 123,191.9 197,191.9" fill="#000000" opacity="0.4"/>
<polygon points="208,175.9 171.9,187.1 175.6,186.5" fill="#3b1c4c" stroke="#3b1c4c" stroke-width="0.7" stroke-linejoin="round"/><polygon points="144.4,37.5 189,37.5 148.1,36.9" fill="#b07dcd" stroke="#b07dcd" stroke-width="0.7" stroke-linejoin="round"/><polygon points="189,37.5 218.8,66.6 222.4,65.9" fill="#81419c" stroke="#81419c" stroke-width="0.7" stroke-linejoin="round"/><polygon points="238.5,97.6 222.4,65.9 218.8,66.6" fill="#6d3485" stroke="#6d3485" stroke-width="0.7" stroke-linejoin="round"/><polygon points="208,175.9 234.3,141.1 208.3,159.1" fill="#432055" stroke="#432055" stroke-width="0.7" stroke-linejoin="round"/><polygon points="238.5,97.6 226.1,113 234.3,141.1" fill="#542869" stroke="#542869" stroke-width="0.7" stroke-linejoin="round"/><polygon points="208,175.9 208.3,159.1 171.9,187.1" fill="#49235c" stroke="#49235c" stroke-width="0.7" stroke-linejoin="round"/><polygon points="181.5,49.2 189,37.5 144.4,37.5" fill="#b583d2" stroke="#b583d2" stroke-width="0.7" stroke-linejoin="round"/><polygon points="181.5,49.2 218.8,66.6 189,37.5" fill="#9b62b7" stroke="#9b62b7" stroke-width="0.7" stroke-linejoin="round"/><polygon points="238.5,97.6 218.8,66.6 226.1,113" fill="#6e3587" stroke="#6e3587" stroke-width="0.7" stroke-linejoin="round"/><polygon points="234.3,141.1 226.1,113 208.3,159.1" fill="#532868" stroke="#532868" stroke-width="0.7" stroke-linejoin="round"/><polygon points="208.3,159.1 163.7,159.1 171.9,187.1" fill="#5d2d73" stroke="#5d2d73" stroke-width="0.7" stroke-linejoin="round"/><polygon points="181.5,49.2 192.7,84.6 218.8,66.6" fill="#9c63b8" stroke="#9c63b8" stroke-width="0.7" stroke-linejoin="round"/><polygon points="226.1,113 218.8,66.6 192.7,84.6" fill="#83449f" stroke="#83449f" stroke-width="0.7" stroke-linejoin="round"/><polygon points="194.1,128.2 208.3,159.1 226.1,113" fill="#67327f" stroke="#67327f" stroke-width="0.7" stroke-linejoin="round"/><polygon points="181.5,49.2 146.7,66.6 192.7,84.6" fill="#b785d4" stroke="#b785d4" stroke-width="0.7" stroke-linejoin="round"/><polygon points="194.1,128.2 163.7,159.1 208.3,159.1" fill="#6d3485" stroke="#6d3485" stroke-width="0.7" stroke-linejoin="round"/><polygon points="194.1,128.2 226.1,113 192.7,84.6" fill="#82429d" stroke="#82429d" stroke-width="0.7" stroke-linejoin="round"/><polygon points="146.7,66.6 154.1,113 192.7,84.6" fill="#b482d1" stroke="#b482d1" stroke-width="0.7" stroke-linejoin="round"/><polygon points="194.1,128.2 154.1,113 163.7,159.1" fill="#8d50a9" stroke="#8d50a9" stroke-width="0.7" stroke-linejoin="round"/><polygon points="194.1,128.2 192.7,84.6 154.1,113" fill="#9d64b9" stroke="#9d64b9" stroke-width="0.7" stroke-linejoin="round"/>
<line x1="88" y1="112" x2="81.5" y2="126.4" stroke="#00E5FF" stroke-width="1.3" opacity="0.9"/><line x1="85.7" y1="82.9" x2="88" y2="112" stroke="#00E5FF" stroke-width="1.3" opacity="0.9"/><line x1="85.7" y1="82.9" x2="81.5" y2="126.4" stroke="#00E5FF" stroke-width="1.3" opacity="0.9"/><line x1="112" y1="48.1" x2="85.7" y2="82.9" stroke="#00E5FF" stroke-width="1.3" opacity="0.9"/><line x1="105.9" y1="65.9" x2="85.7" y2="82.9" stroke="#00E5FF" stroke-width="1.3" opacity="0.9"/><line x1="112" y1="48.1" x2="105.9" y2="65.9" stroke="#00E5FF" stroke-width="1.3" opacity="0.9"/><line x1="81.5" y1="126.4" x2="97.6" y2="158.1" stroke="#00E5FF" stroke-width="1.3" opacity="0.9"/><line x1="88" y1="112" x2="97.6" y2="158.1" stroke="#00E5FF" stroke-width="1.3" opacity="0.9"/><line x1="97.6" y1="158.1" x2="132.3" y2="175.9" stroke="#00E5FF" stroke-width="1.3" opacity="0.9"/><line x1="97.6" y1="158.1" x2="131" y2="186.5" stroke="#00E5FF" stroke-width="1.3" opacity="0.9"/><line x1="132.3" y1="175.9" x2="131" y2="186.5" stroke="#00E5FF" stroke-width="1.3" opacity="0.9"/><line x1="144.4" y1="37.5" x2="105.9" y2="65.9" stroke="#00E5FF" stroke-width="1.3" opacity="0.9"/><line x1="144.4" y1="37.5" x2="112" y2="48.1" stroke="#00E5FF" stroke-width="1.3" opacity="0.9"/><line x1="131" y1="186.5" x2="171.9" y2="187.1" stroke="#00E5FF" stroke-width="1.3" opacity="0.9"/><line x1="132.3" y1="175.9" x2="171.9" y2="187.1" stroke="#00E5FF" stroke-width="1.3" opacity="0.9"/><line x1="105.9" y1="65.9" x2="88" y2="112" stroke="#00E5FF" stroke-width="1.3" opacity="0.9"/><line x1="117.8" y1="141.1" x2="97.6" y2="158.1" stroke="#00E5FF" stroke-width="1.3" opacity="0.9"/><line x1="88" y1="112" x2="117.8" y2="141.1" stroke="#00E5FF" stroke-width="1.3" opacity="0.9"/><line x1="117.8" y1="141.1" x2="132.3" y2="175.9" stroke="#00E5FF" stroke-width="1.3" opacity="0.9"/><line x1="146.7" y1="66.6" x2="105.9" y2="65.9" stroke="#00E5FF" stroke-width="1.3" opacity="0.9"/><line x1="144.4" y1="37.5" x2="146.7" y2="66.6" stroke="#00E5FF" stroke-width="1.3" opacity="0.9"/><line x1="171.9" y1="187.1" x2="163.7" y2="159.1" stroke="#00E5FF" stroke-width="1.3" opacity="0.9"/><line x1="132.3" y1="175.9" x2="163.7" y2="159.1" stroke="#00E5FF" stroke-width="1.3" opacity="0.9"/><line x1="181.5" y1="49.2" x2="144.4" y2="37.5" stroke="#00E5FF" stroke-width="1.3" opacity="0.9"/><line x1="146.7" y1="66.6" x2="181.5" y2="49.2" stroke="#00E5FF" stroke-width="1.3" opacity="0.9"/><line x1="105.9" y1="65.9" x2="115.9" y2="97.6" stroke="#00E5FF" stroke-width="1.3" opacity="0.9"/><line x1="115.9" y1="97.6" x2="88" y2="112" stroke="#00E5FF" stroke-width="1.3" opacity="0.9"/><line x1="115.9" y1="97.6" x2="117.8" y2="141.1" stroke="#00E5FF" stroke-width="1.3" opacity="0.9"/><line x1="117.8" y1="141.1" x2="163.7" y2="159.1" stroke="#00E5FF" stroke-width="1.3" opacity="0.9"/><line x1="146.7" y1="66.6" x2="115.9" y2="97.6" stroke="#00E5FF" stroke-width="1.3" opacity="0.9"/><line x1="163.7" y1="159.1" x2="154.1" y2="113" stroke="#00E5FF" stroke-width="1.3" opacity="0.9"/><line x1="117.8" y1="141.1" x2="154.1" y2="113" stroke="#00E5FF" stroke-width="1.3" opacity="0.9"/><line x1="115.9" y1="97.6" x2="154.1" y2="113" stroke="#00E5FF" stroke-width="1.3" opacity="0.9"/><line x1="154.1" y1="113" x2="146.7" y2="66.6" stroke="#00E5FF" stroke-width="1.3" opacity="0.9"/>
<polygon points="84.2,126.4 82.9,128.8 80.2,128.8 78.8,126.4 80.2,124.1 82.9,124.1" fill="#5CF0FF"/><polygon points="90.7,112 89.3,114.3 86.6,114.3 85.3,112 86.6,109.7 89.3,109.7" fill="#5CF0FF"/><polygon points="88.4,82.9 87,85.2 84.3,85.2 83,82.9 84.3,80.6 87,80.6" fill="#5CF0FF"/><polygon points="114.7,48.1 113.3,50.4 110.6,50.4 109.3,48.1 110.6,45.7 113.3,45.7" fill="#5CF0FF"/><polygon points="108.6,65.9 107.2,68.3 104.5,68.3 103.2,65.9 104.5,63.6 107.2,63.6" fill="#5CF0FF"/><polygon points="100.3,158.1 98.9,160.4 96.2,160.4 94.9,158.1 96.2,155.7 98.9,155.7" fill="#5CF0FF"/><polygon points="135,175.9 133.6,178.3 130.9,178.3 129.6,175.9 130.9,173.6 133.6,173.6" fill="#5CF0FF"/><polygon points="133.7,186.5 132.4,188.9 129.7,188.9 128.3,186.5 129.7,184.2 132.4,184.2" fill="#5CF0FF"/><polygon points="147.1,37.5 145.8,39.8 143.1,39.8 141.7,37.5 143.1,35.1 145.8,35.1" fill="#5CF0FF"/><polygon points="174.6,187.1 173.3,189.5 170.6,189.5 169.2,187.1 170.6,184.8 173.3,184.8" fill="#5CF0FF"/><polygon points="120.5,141.1 119.1,143.4 116.4,143.4 115.1,141.1 116.4,138.8 119.1,138.8" fill="#5CF0FF"/><polygon points="149.4,66.6 148.1,68.9 145.4,68.9 144,66.6 145.4,64.2 148.1,64.2" fill="#5CF0FF"/><polygon points="166.4,159.1 165.1,161.4 162.4,161.4 161,159.1 162.4,156.7 165.1,156.7" fill="#5CF0FF"/><polygon points="184.2,49.2 182.9,51.5 180.2,51.5 178.8,49.2 180.2,46.8 182.9,46.8" fill="#5CF0FF"/><polygon points="118.6,97.6 117.3,99.9 114.6,99.9 113.2,97.6 114.6,95.2 117.3,95.2" fill="#5CF0FF"/><polygon points="156.8,113 155.5,115.4 152.8,115.4 151.4,113 152.8,110.7 155.5,110.7" fill="#5CF0FF"/>
</svg>
